<?xml version="1.0" encoding="iso-8859-1"?>
<!-- Generator: Adobe Illustrator 19.0.0, SVG Export Plug-In . SVG Version: 6.00 Build 0)  -->
<svg version="1.1" id="Layer_1" xmlns="http://www.w3.org/2000/svg" xmlns:xlink="http://www.w3.org/1999/xlink" x="0px" y="0px"
	 viewBox="0 0 511.984 511.984" style="enable-background:new 0 0 511.984 511.984;" xml:space="preserve">
<g>
	<path style="fill:#965353;" d="M458.638,511.984c-5.875,0-10.656-4.781-10.656-10.656V437.33c0-5.906,4.781-10.687,10.656-10.687
		c5.906,0,10.688,4.78,10.688,10.687v63.998C469.327,507.203,464.546,511.984,458.638,511.984z"/>
	<path style="fill:#965353;" d="M53.331,511.984c-5.89,0-10.671-4.781-10.671-10.656V437.33c0-5.906,4.781-10.687,10.671-10.687
		c5.891,0,10.664,4.78,10.664,10.687v63.998C63.994,507.203,59.222,511.984,53.331,511.984z"/>
</g>
<g>
	<path style="fill:#A0D468;" d="M491.574,369.285c-9.061-34.092-19.217-49.295-32.936-49.295c-13.703,0-23.875,15.203-32.922,49.295
		c-6.014,22.609-9.732,47.39-9.732,57.358c0,23.53,19.139,42.687,42.654,42.687c23.531,0,42.686-19.156,42.686-42.687
		C501.324,416.675,497.59,391.894,491.574,369.285z"/>
	<path style="fill:#A0D468;" d="M53.331,319.99c-13.718,0-23.874,15.203-32.937,49.295c-6.007,22.609-9.734,47.39-9.734,57.358
		c0,23.53,19.14,42.687,42.67,42.687c23.523,0,42.663-19.156,42.663-42.687c0-9.969-3.719-34.749-9.727-57.358
		C77.204,335.193,67.049,319.99,53.331,319.99z"/>
</g>
<path style="fill:#4FC2E9;" d="M383.984,0H127.993c-5.891,0-10.664,4.772-10.664,10.663v490.665c0,5.875,4.773,10.656,10.664,10.656
	h255.992c5.891,0,10.656-4.781,10.656-10.656V10.663C394.641,4.772,389.875,0,383.984,0z"/>
<path style="fill:#434A54;" d="M255.989,511.984c-5.89,0-10.664-4.781-10.664-10.656v-21.343c0-5.89,4.773-10.655,10.664-10.655
	c5.891,0,10.664,4.766,10.664,10.655v21.343C266.652,507.203,261.879,511.984,255.989,511.984z"/>
<g>
	<path style="fill:#E6E9ED;" d="M351.986,447.986H159.992c-5.891,0-10.664-4.781-10.664-10.656c0-5.906,4.773-10.687,10.664-10.687
		h191.995c5.889,0,10.654,4.78,10.654,10.687C362.641,443.205,357.875,447.986,351.986,447.986z"/>
	<path style="fill:#E6E9ED;" d="M351.986,405.332H159.992c-5.891,0-10.664-4.781-10.664-10.688c0-5.875,4.773-10.656,10.664-10.656
		h191.995c5.889,0,10.654,4.781,10.654,10.656C362.641,400.551,357.875,405.332,351.986,405.332z"/>
	<path style="fill:#E6E9ED;" d="M351.986,362.644H159.992c-5.891,0-10.664-4.765-10.664-10.655s4.773-10.656,10.664-10.656h191.995
		c5.889,0,10.654,4.766,10.654,10.656S357.875,362.644,351.986,362.644z"/>
	<path style="fill:#E6E9ED;" d="M351.986,319.99H159.992c-5.891,0-10.664-4.781-10.664-10.656c0-5.906,4.773-10.688,10.664-10.688
		h191.995c5.889,0,10.654,4.781,10.654,10.688C362.641,315.209,357.875,319.99,351.986,319.99z"/>
	<path style="fill:#E6E9ED;" d="M351.986,277.335H159.992c-5.891,0-10.664-4.781-10.664-10.679c0-5.891,4.773-10.664,10.664-10.664
		h191.995c5.889,0,10.654,4.773,10.654,10.664C362.641,272.554,357.875,277.335,351.986,277.335z"/>
	<path style="fill:#E6E9ED;" d="M351.986,234.657H159.992c-5.891,0-10.664-4.773-10.664-10.664s4.773-10.664,10.664-10.664h191.995
		c5.889,0,10.654,4.773,10.654,10.664S357.875,234.657,351.986,234.657z"/>
	<path style="fill:#E6E9ED;" d="M351.986,191.994H159.992c-5.891,0-10.664-4.773-10.664-10.664s4.773-10.671,10.664-10.671h191.995
		c5.889,0,10.654,4.78,10.654,10.671S357.875,191.994,351.986,191.994z"/>
	<path style="fill:#E6E9ED;" d="M351.986,149.331H159.992c-5.891,0-10.664-4.781-10.664-10.672c0-5.89,4.773-10.663,10.664-10.663
		h191.995c5.889,0,10.654,4.773,10.654,10.663C362.641,144.55,357.875,149.331,351.986,149.331z"/>
	<path style="fill:#E6E9ED;" d="M351.986,106.66H159.992c-5.891,0-10.664-4.772-10.664-10.663s4.773-10.664,10.664-10.664h191.995
		c5.889,0,10.654,4.773,10.654,10.664S357.875,106.66,351.986,106.66z"/>
	<path style="fill:#E6E9ED;" d="M351.986,63.998H159.992c-5.891,0-10.664-4.773-10.664-10.664s4.773-10.672,10.664-10.672h191.995
		c5.889,0,10.654,4.781,10.654,10.672S357.875,63.998,351.986,63.998z"/>
</g>
<path style="fill:#3BAFDA;" d="M394.641,21.335H117.328c-5.891,0-10.672-4.781-10.672-10.672S111.438,0,117.328,0h277.312
	c5.906,0,10.688,4.772,10.688,10.663S400.547,21.335,394.641,21.335z"/>
<path style="fill:#656D78;" d="M405.328,511.984H106.658c-5.89,0-10.664-4.781-10.664-10.656c0-5.906,4.773-10.687,10.664-10.687
	h298.671c5.875,0,10.656,4.78,10.656,10.687C415.984,507.203,411.203,511.984,405.328,511.984z"/>
<g>
</g>
<g>
</g>
<g>
</g>
<g>
</g>
<g>
</g>
<g>
</g>
<g>
</g>
<g>
</g>
<g>
</g>
<g>
</g>
<g>
</g>
<g>
</g>
<g>
</g>
<g>
</g>
<g>
</g>
</svg>
