<?xml version="1.0" encoding="iso-8859-1"?>
<!-- Generator: Adobe Illustrator 19.0.0, SVG Export Plug-In . SVG Version: 6.00 Build 0)  -->
<svg version="1.1" id="Layer_1" xmlns="http://www.w3.org/2000/svg" xmlns:xlink="http://www.w3.org/1999/xlink" x="0px" y="0px"
	 viewBox="0 0 512 512" style="enable-background:new 0 0 512 512;" xml:space="preserve">
<polygon style="fill:#6D542E;" points="67.462,276.688 108.497,270.703 0,464.232 0,400.993 "/>
<polygon style="fill:#49300F;" points="154.985,248.412 242.527,276.688 29.977,464.232 0,464.232 85.991,270.703 "/>
<polygon style="fill:#DCDFE3;" points="67.462,276.688 154.995,115.404 101.316,286.862 78.811,286.862 "/>
<polygon style="fill:#C7CCD2;" points="154.995,115.404 242.527,276.688 198.756,315.916 154.985,276.688 111.224,315.916 
	78.811,286.862 "/>
<polygon style="fill:#3B0100;" points="444.538,276.688 403.503,270.703 512,464.232 512,400.993 "/>
<polygon style="fill:#37240B;" points="357.015,248.412 269.473,276.688 482.023,464.232 512,464.232 426.009,270.703 "/>
<polygon style="fill:#AEB3B8;" points="444.538,276.688 357.005,115.404 410.684,286.862 433.189,286.862 "/>
<polygon style="fill:#C7CCD2;" points="357.005,115.404 269.473,276.688 313.244,315.916 357.015,276.688 400.776,315.916 
	433.189,286.862 "/>
<polygon style="fill:#6D542E;" points="336.294,232.505 255.989,206.567 175.707,232.503 74.988,464.232 437.012,464.232 "/>
<polygon style="fill:#EAEBED;" points="256,47.768 166.472,253.749 203.742,287.159 255.989,240.325 308.247,287.159 
	345.527,253.748 "/>
<polygon style="fill:#7F663E;" points="151.496,240.325 29.977,464.232 70.953,464.232 196.122,221.926 "/>
<path style="fill:#49300F;" d="M482.023,464.232L360.504,240.325l-44.626-18.397c0,0,119.463,229.463,125.169,242.304H482.023z"/>
<path style="fill:#6D542E;" d="M338.384,233.181l-82.395-26.614l-82.372,26.612L70.953,464.232h370.095
	C435.341,451.39,338.384,233.181,338.384,233.181z"/>
<polygon style="fill:#FFFFFF;" points="151.496,240.325 165.045,252.47 187.551,252.47 256,47.768 "/>
<polygon style="fill:#EAEBED;" points="256,47.768 165.045,252.47 203.742,287.159 255.989,240.325 308.247,287.159 
	346.955,252.469 "/>
<polygon style="fill:#DCDFE3;" points="360.504,240.325 256,47.768 324.449,252.469 346.955,252.469 "/>
<g>
	<circle style="fill:#90784E;" cx="347.001" cy="367.695" r="8.44"/>
	<circle style="fill:#90784E;" cx="150.652" cy="416.971" r="8.44"/>
	<circle style="fill:#90784E;" cx="376.708" cy="394.904" r="8.44"/>
</g>
<g>
</g>
<g>
</g>
<g>
</g>
<g>
</g>
<g>
</g>
<g>
</g>
<g>
</g>
<g>
</g>
<g>
</g>
<g>
</g>
<g>
</g>
<g>
</g>
<g>
</g>
<g>
</g>
<g>
</g>
</svg>
