<?xml version="1.0" encoding="iso-8859-1"?>
<!-- Generator: Adobe Illustrator 19.0.0, SVG Export Plug-In . SVG Version: 6.00 Build 0)  -->
<svg version="1.1" id="Layer_1" xmlns="http://www.w3.org/2000/svg" xmlns:xlink="http://www.w3.org/1999/xlink" x="0px" y="0px"
	 viewBox="0 0 485 485" style="enable-background:new 0 0 485 485;" xml:space="preserve">
<g>
	<g>
		<g>
			<path d="M242.5,40C163.925,40,100,103.925,100,182.5S163.925,325,242.5,325S385,261.075,385,182.5S321.075,40,242.5,40z
				 M264.698,224.852L256.961,250h-28.922l-7.737-25.147l22.198-83.246L264.698,224.852z M242.5,309.999
				c-67.785,0-123.377-53.173-127.273-119.999H147.5v-15h-32.273c1.574-27.007,11.591-51.782,27.446-71.72l19.524,19.524
				l10.607-10.607l-20.11-20.11C174.096,70.825,202.98,57.093,235,55.227V87.5h6.405l-36.706,137.647L216.961,265h51.078
				l12.263-39.853L243.595,87.5H250V55.227c32.02,1.867,60.904,15.599,82.307,36.859l-20.11,20.11l10.607,10.607l19.524-19.524
				c15.855,19.938,25.872,44.713,27.446,71.72H337.5v15h32.273C365.877,256.825,310.285,309.999,242.5,309.999z"/>
			<path d="M425,182.5C425,81.869,343.131,0,242.5,0S60,81.869,60,182.5c0,90.52,66.17,166.907,155,180.367V435h-37.5
				c-9.649,0-17.5,7.851-17.5,17.5V470h-42.5v15h250v-15H325v-17.5c0-9.649-7.851-17.5-17.5-17.5H270v-72.133
				C358.83,349.407,425,273.02,425,182.5z M307.5,450c1.355,0,2.5,1.145,2.5,2.5V470H175v-17.5c0-1.355,1.145-2.5,2.5-2.5H307.5z
				 M261.646,348.849L255,349.61V435h-25v-85.39l-6.646-0.762C138.778,339.149,75,267.635,75,182.5C75,90.141,150.141,15,242.5,15
				S410,90.141,410,182.5C410,267.635,346.222,339.149,261.646,348.849z"/>
		</g>
	</g>
</g>
<g>
</g>
<g>
</g>
<g>
</g>
<g>
</g>
<g>
</g>
<g>
</g>
<g>
</g>
<g>
</g>
<g>
</g>
<g>
</g>
<g>
</g>
<g>
</g>
<g>
</g>
<g>
</g>
<g>
</g>
</svg>
