<?xml version="1.0" encoding="iso-8859-1"?>
<!-- Generator: Adobe Illustrator 19.0.0, SVG Export Plug-In . SVG Version: 6.00 Build 0)  -->
<svg version="1.1" id="Capa_1" xmlns="http://www.w3.org/2000/svg" xmlns:xlink="http://www.w3.org/1999/xlink" x="0px" y="0px"
	 viewBox="0 0 496 496" style="enable-background:new 0 0 496 496;" xml:space="preserve">
<g>
	<g>
		<g>
			<path d="M248,0C133.304,0,40,93.304,40,208c0,92.368,60.536,170.824,144,197.88V464h16v32h16v-32h64v32h16v-32h16v-58.12
				C395.464,378.824,456,300.368,456,208C456,93.304,362.696,0,248,0z M296,448h-96v-37.656c15.416,3.664,31.48,5.656,48,5.656
				s32.584-1.992,48-5.656V448z M248,400c-105.864,0-192-86.136-192-192S142.136,16,248,16s192,86.136,192,192S353.864,400,248,400z
				"/>
			<rect x="240" y="32" width="16" height="32"/>
			<rect x="151.996" y="61.432" transform="matrix(0.5 0.866 -0.866 0.5 144.1256 -110.7724)" width="31.999" height="16"/>
			<rect x="93.428" y="119.984" transform="matrix(0.866 0.5 -0.5 0.866 78.6547 -37.5678)" width="31.999" height="16"/>
			<rect x="72" y="200" width="32" height="16"/>
			<rect x="93.424" y="280.004" transform="matrix(0.866 -0.5 0.5 0.866 -129.3445 93.3004)" width="31.999" height="16"/>
			<rect x="370.552" y="279.991" transform="matrix(-0.866 -0.5 0.5 -0.866 577.3149 730.6769)" width="31.999" height="16"/>
			<rect x="392" y="200" width="32" height="16"/>
			<rect x="378.571" y="112.013" transform="matrix(0.4999 0.8661 -0.8661 0.4999 304.1972 -270.7838)" width="16" height="32"/>
			<rect x="319.99" y="53.458" transform="matrix(0.8661 0.4999 -0.4999 0.8661 78.6441 -154.6587)" width="16" height="32"/>
			<path d="M121.936,247.752l98.096-24.52C225.472,233.168,235.896,240,248,240c17.648,0,32-14.352,32-32s-14.352-32-32-32
				c-17.56,0-31.84,14.224-31.976,31.752l-97.96,24.488L121.936,247.752z M248,192c8.824,0,16,7.176,16,16c0,8.824-7.176,16-16,16
				c-8.824,0-16-7.176-16-16C232,199.176,239.176,192,248,192z"/>
			<path d="M248,368c-43.304,0-83.888-17.096-114.28-48.128l-11.44,11.184C155.712,365.2,200.352,384,248,384
				s92.288-18.8,125.72-52.936l-11.44-11.184C331.888,350.904,291.304,368,248,368z"/>
		</g>
	</g>
</g>
<g>
</g>
<g>
</g>
<g>
</g>
<g>
</g>
<g>
</g>
<g>
</g>
<g>
</g>
<g>
</g>
<g>
</g>
<g>
</g>
<g>
</g>
<g>
</g>
<g>
</g>
<g>
</g>
<g>
</g>
</svg>
