<?xml version="1.0" encoding="iso-8859-1"?>
<!-- Generator: Adobe Illustrator 16.0.0, SVG Export Plug-In . SVG Version: 6.00 Build 0)  -->
<!DOCTYPE svg PUBLIC "-//W3C//DTD SVG 1.1//EN" "http://www.w3.org/Graphics/SVG/1.1/DTD/svg11.dtd">
<svg version="1.1" id="Capa_1" xmlns="http://www.w3.org/2000/svg" xmlns:xlink="http://www.w3.org/1999/xlink" x="0px" y="0px"
	 width="512px" height="512px" viewBox="0 0 512 512" style="enable-background:new 0 0 512 512;" xml:space="preserve">
<g>
	<path d="M512,312.771c0-41.045-28.34-75.452-66.498-84.74C443.881,163.681,391.273,112,326.57,112
		c-37.896,0-71.632,17.747-93.426,45.366c-12.221-15.799-31.345-25.98-52.854-25.98c-36.905,0-66.821,29.938-66.821,66.861
		c0,3.218,0.24,6.38,0.682,9.477c-5.611-1.012-11.383-1.569-17.285-1.569C43.367,206.154,0,249.548,0,303.076
		C0,356.607,43.367,400,96.865,400h328.131v-0.006C473.064,399.902,512,360.889,512,312.771z"/>
</g>
<g>
</g>
<g>
</g>
<g>
</g>
<g>
</g>
<g>
</g>
<g>
</g>
<g>
</g>
<g>
</g>
<g>
</g>
<g>
</g>
<g>
</g>
<g>
</g>
<g>
</g>
<g>
</g>
<g>
</g>
</svg>
